<svg xmlns="http://www.w3.org/2000/svg" xmlns:xlink="http://www.w3.org/1999/xlink" x="0px" y="0px" viewBox="0 0 100 100" style="enable-background:new 0 0 100 100;" xml:space="preserve"><g>	<path d="M62.5,83c-0.4-0.5-0.8-0.9-1.2-1.4c-0.4-0.5-0.9-0.9-1.5-1.4c-1.1-1-2.3-1.9-3.6-2.8c-0.7-0.4-1.4-0.9-2.1-1.3  c-0.7-0.4-1.5-0.7-2.3-1.1l-1.2-0.5c-0.2-0.1-0.4-0.2-0.6-0.3L49.5,74c-0.8-0.3-1.7-0.5-2.6-0.8c-3.6-0.9-7.4-1.1-11.3-0.5  c-3.7,0.7-7.4,2.2-10.8,4.3c-0.8,0.5-1.6,1.1-2.3,1.6L22,79c-0.2,0.1-0.4,0.3-0.5,0.5l-1,0.9c-0.7,0.6-1.3,1.2-1.9,1.8  c-0.6,0.7-1.2,1.3-1.7,2c-1.1,1.2-2,2.5-2.9,3.9c-0.4,0.6-0.8,1.2-1.1,1.8c-0.3,0.6-0.6,1.2-0.9,1.8c-0.9,1.6-1.3,3.4-1.2,5.1  c0.3,1.1,1.2,1.5,2.6,1.3c0.4-0.1,0.8-0.2,1.2-0.3c0.4-0.1,0.9-0.2,1.4-0.4c1-0.3,2-0.8,3.2-1.3c0.6-0.2,1.2-0.5,1.8-0.8  c0.6-0.3,1.3-0.5,2-0.8l1-0.4c0.2-0.1,0.4-0.1,0.5-0.2c0.2-0.1,0.4-0.1,0.6-0.2c0.7-0.3,1.5-0.5,2.3-0.8c3.4-1.1,6.8-2,10.2-2.7  c3.5-0.5,6.9-0.8,10.4-0.9c0.8,0,1.6,0,2.4,0l0.6,0l0.6,0l1.1,0.1c0.7,0,1.4,0,2.1,0.1c0.7,0.1,1.3,0.1,1.9,0.1  c1.2,0,2.4,0.2,3.4,0.1c0.5,0,1,0,1.4-0.1c0.4,0,0.8,0,1.2-0.1c1.4-0.3,2.2-0.9,2.3-2.1l0,0C64.4,85.8,63.7,84.2,62.5,83z"></path>	<path d="M75.6,58c-0.4-0.6-0.9-1.2-1.4-1.9c-1.1-1.5-2.3-2.9-3.6-4.2c-0.7-0.7-1.5-1.5-2.2-2.3c-0.8-0.8-1.7-1.5-2.5-2.3  c-1.8-1.6-3.7-3.1-5.9-4.7c-4.6-3.4-9.4-6.4-14.5-9c-5-2.6-10.2-4.7-15.7-6.5c-2.5-0.8-4.9-1.4-7.1-1.9c-1.1-0.2-2.2-0.5-3.3-0.7  c-1.1-0.2-2.1-0.3-3.1-0.5c-1.8-0.2-3.6-0.4-5.4-0.4c-0.8,0-1.6,0-2.3,0c-0.7,0-1.4,0.1-1.9,0.2c-2.4,0.4-3.8,1.2-4.1,2.3  c-0.6,2.3,3.4,5.4,10,9.1c0.8,0.5,1.7,1,2.6,1.4l2.8,1.5c2,1,4,2.1,6.2,3.2c4.4,2.3,9.2,4.7,14.2,7.3c5,2.6,9.8,5.1,14.2,7.3  c2.2,1.1,4.3,2.2,6.3,3.2l2.9,1.4c0.9,0.5,1.8,0.9,2.7,1.3c6.9,3.2,11.7,4.6,13,2.6l0,0c0.6-0.9,0.3-2.6-0.9-4.8  C76.4,59.2,76,58.7,75.6,58z"></path>	<path d="M97.3,41.2c-0.1-0.3-0.3-0.7-0.5-1c-0.2-0.3-0.4-0.7-0.6-1.1c-0.5-0.8-1.2-1.6-1.9-2.5c-0.4-0.5-0.8-0.9-1.2-1.4l-1.3-1.5  c-0.9-1-1.8-2.2-2.8-3.4c-1.9-2.4-4-5-6-7.8c-2-2.8-3.7-5.6-5.2-8.1c-0.7-1.3-1.5-2.5-2.1-3.6l-1-1.6c-0.3-0.5-0.6-1-0.9-1.5  c-0.6-1-1.1-1.8-1.7-2.6c-0.3-0.4-0.6-0.7-0.9-1C71,3.6,70.8,3.3,70.5,3c-0.4-0.5-1-0.8-1.6-1c-0.6-0.2-1.3-0.2-2-0.1  c-0.7,0.2-1.4,0.6-2,1.1c-0.6,0.5-1.1,1.1-1.5,1.8c-0.3,0.4-0.5,0.8-0.8,1.3c-0.2,0.5-0.5,1-0.6,1.5c-0.4,1.1-0.8,2.3-1,3.4  c-0.1,0.6-0.2,1.3-0.3,1.9c0,0.7-0.1,1.4,0,2c0,1.5,0.2,2.9,0.5,4.4c0.8,3.3,2.2,6.4,4.1,9.1c2.2,3,4.8,5.7,7.8,7.8  c1.5,1.1,3,2.1,4.6,2.9c0.8,0.4,1.5,0.9,2.3,1.2c0.8,0.4,1.6,0.7,2.4,1c1.5,0.6,3,1.1,4.5,1.6c0.7,0.2,1.4,0.4,2.1,0.5  c0.7,0.2,1.3,0.3,1.9,0.4c1.7,0.4,3.6,0.4,5.4-0.2l0,0C97.5,43.3,97.7,42.4,97.3,41.2z"></path></g></svg>