<svg xmlns="http://www.w3.org/2000/svg" xmlns:xlink="http://www.w3.org/1999/xlink" x="0px" y="0px" viewBox="0 0 100 100" style="enable-background:new 0 0 100 100;" xml:space="preserve"><path d="M34.7,56.1c-1.5-0.1-3.1,0.1-4.5,0.6c-0.8,0.2-1.5,0.6-2.2,1.2c-0.8-0.3-1.6-0.4-2.4-0.5c-1.7,0.1-3.3,0.7-4.6,1.8 c-0.7,0.5-1.3,1.1-1.8,1.8c-0.6,0.7-1.2,1.4-1.8,2c-0.7,0.8-1.3,1.6-1.8,2.4c-0.5,0.8-1,1.7-1.4,2.5c-0.9,1.5-1.9,2.9-1.8,4.7 c0,1,0.4,1.9,1,2.6l0,0c-0.4,1.3-0.5,2.7-0.5,4c-0.1,1.6,0.1,3.2,0.6,4.7c0.6,1.7,1.6,3.3,2.8,4.7c1.3,1.4,2.8,2.6,4.4,3.6 c0,0,0,0,0.1,0.1c0.1,0.1,0.3,0.2,0.5,0.4c0.2,0.1,0.3,0.2,0.5,0.4c0.2,0.1,0.3,0.2,0.5,0.3c0.1,0.1,0.2,0.1,0.3,0.2 c0,0,0.1,0.1,0.1,0.1c0.4,0.4,0.9,0.7,1.4,1c0.1,0.1,0.3,0.2,0.4,0.2c0,0,0.1,0,0.1,0.1c0.2,0.1,0.4,0.2,0.7,0.3 c1.7,0.9,3.4,1.5,5.2,2c1.8,0.4,3.7,0.2,5.4-0.4c0.4-0.1,0.8-0.3,1.1-0.5c0.3-0.2,0.6-0.5,0.9-0.8c0.2-0.2,0.4-0.5,0.6-0.7 c0.1-0.1,0.2-0.2,0.3-0.3c0,0,0.1-0.1,0.1-0.1l0,0c1.1-0.1,2.1-0.3,3.1-0.6c1.3-0.5,2.4-1.3,3.5-2.2c0.9-0.8,1.8-1.7,2.6-2.7 c0.6-0.7,1.1-1.5,1.6-2.3c0.4-0.6,0.7-1.3,1-2c0.7-1.4,1.3-2.9,1.8-4.3c0.2-0.5,0.4-1,0.6-1.6c0.1-0.2,0.1-0.4,0.1-0.5 c0-0.2,0.1-0.3,0.1-0.5l0,0c0-0.1,0-0.2,0-0.3c0.1-0.8,0.2-1.6,0.2-2.5c0-0.4-0.1-0.9-0.2-1.3c-0.1-0.4-0.3-0.9-0.5-1.3 c-0.3-0.8-0.8-1.5-1.2-2.2l-0.1-0.1c0,0,0-0.1,0-0.1c0-0.1,0-0.2,0-0.3c0-0.2,0-0.3,0-0.5c0-0.5,0-1.1-0.2-1.6 c-0.2-0.8-0.4-1.5-0.8-2.2c-0.3-0.6-0.7-1.1-1.1-1.6c-0.3-0.4-0.7-0.8-1.1-1.2c0.2-0.1,0.5-0.2,0.7-0.3c0.9-0.6,1.6-1.3,2.2-2.2 c0.7-0.9,1.4-1.8,2-2.7c0.1-0.1,0.2-0.3,0.3-0.4c0-0.1,0.1-0.1,0.1-0.2c0.5-0.5,1-1.1,1.3-1.8c0.3-0.5,0.4-1.1,0.3-1.6l0.1-0.1 c0,0,0.1-0.1,0.1-0.1c0.1-0.1,0.1-0.1,0.2-0.2c0.2-0.2,0.5-0.3,0.7-0.5c0.8-0.5,1.7-1,2.5-1.5c0.7-0.5,1.4-1,2.1-1.5 c0.8-0.6,1.7-1.2,2.5-1.9c1.5-1.1,3-2.3,4.4-3.4c1.5-1.2,2.9-2.3,4.3-3.6c1-1,2-2,3-3.1c1.9-2.1,3.6-4.2,5.2-6.5 c1.6-2.2,3-4.6,4.2-7c1.2-2.3,2-4.8,2.5-7.4c0.5-2.4,0.3-4.8-0.4-7.1C86.6,8.2,85.9,7,84.9,6s-2.1-1.9-3.3-2.5c-1.3-0.6-2.6-0.9-4-1 c-1.4,0-2.8,0.2-4.1,0.7c-1.6,0.7-3.1,1.6-4.4,2.8c-1.4,1.2-2.6,2.6-3.7,4.1c-2.1,2.9-3.7,6-5,9.4c-1.2,3-2.2,6.1-3.2,9.1 c-0.6,1.7-1.1,3.5-1.7,5.2c-0.3,0.9-0.6,1.8-1,2.7c-0.2,0.4-0.3,0.8-0.5,1.2c-0.1,0.2-0.2,0.4-0.2,0.6l-0.1,0.3l0,0l-0.1,0.1 c-1.3,3.2-2.8,6.2-4.5,9.2c-0.1,0-0.3,0-0.4,0c-0.3,0.1-0.6,0.2-0.9,0.4c-0.3,0.2-0.5,0.4-0.6,0.7c-0.2,0.3-0.5,0.7-0.7,1 c-0.1,0.2-0.2,0.3-0.4,0.5l0,0L46,50.9c-0.2,0.3-0.4,0.5-0.6,0.8c-0.1,0.1-0.2,0.2-0.2,0.3c0.1-0.1-0.3,0.4-0.3,0.3l-0.2,0.2 c-0.6,0.7-1.2,1.5-1.7,2.2c-0.3,0.4-0.7,0.8-0.9,1.3c-0.2,0.3-0.3,0.6-0.4,0.9c-0.2,0.3-0.5,0.5-0.8,0.8c-0.2-0.1-0.4-0.2-0.6-0.2 c-0.5-0.2-1.1-0.3-1.6-0.5C37.4,56.6,36,56.3,34.7,56.1 M31.4,59.3c0.4-0.1,0.7-0.2,1.1-0.2c0.1,0,0.2,0,0.3,0l0,0 c0.2,0,0.5,0,0.7-0.1c0.4,0,0.8,0,1.2,0c0.1,0,0.2,0,0.3,0l0.1,0c0.1,0,0.1,0,0.2,0c-0.8,0.4-1.5,1-2.1,1.6 c-0.7-0.4-1.4-0.8-2.1-1.2C31.2,59.4,31.3,59.4,31.4,59.3 M35.8,65.7L35.8,65.7c0,0-0.1-0.1-0.1-0.2C35.8,65.6,35.8,65.6,35.8,65.7  M27.5,60.7C27.4,60.7,27.2,60.6,27.5,60.7L27.5,60.7z M26,60.3C25.9,60.3,25.7,60.3,26,60.3L26,60.3z M25.1,60.3 C25,60.3,24.8,60.4,25.1,60.3L25.1,60.3z M22.3,61.9c0.2-0.1,0.3-0.3,0.5-0.4c0.1,0,0.1-0.1,0.2-0.1l0.1-0.1c0.3-0.2,0.7-0.5,1-0.7 c0.1,0,0.3-0.1,0.3-0.1c0.1,0,0.2-0.1,0.3-0.1c0.1,0,0.3-0.1,0.4-0.1c0.1,0,0.2,0,0.3,0c0.1,0,0.3,0,0.4,0c0,0,0.1,0,0.1,0 c0.3,0.1,0.6,0.1,0.9,0.2c0.1,0,0.3,0.1,0.4,0.1l0.1,0.1c0.3,0.1,0.6,0.3,0.9,0.4c1.4,0.7,2.7,1.5,4.1,2.3c0.4,0.2,0.8,0.5,1.2,0.7 c0.2,0.1,0.4,0.3,0.6,0.4c0.1,0.1,0.2,0.1,0.3,0.2l0.1,0l0,0c0.4,0.3,0.8,0.6,1.2,0.8c0,0,0,0,0.1,0l0,0l0,0l0,0 c0.1,0.1,0.1,0.1,0,0c0.1,0.1,0.2,0.2,0.3,0.3c0,0,0,0,0,0l0,0c0,0,0,0,0,0c0,0.1,0.1,0.1,0.1,0.2c0,0,0,0,0,0.1c0,0,0,0.1,0,0.1 c0,0.1,0,0.1,0.1,0.2l0,0.1c0.2,0.4,0.2,0.4,0.1,0.2c0,0,0,0,0,0c0,0,0,0,0,0l0,0c0,0,0,0.1,0,0.1c0,0.1,0,0.1,0,0.2 c0,0.2,0,0.4,0.1,0.5c0,0.1,0,0.4,0,0.2c0,0.3,0,0.6,0,1c0,0.1,0,0.2,0,0.3l0,0c0,0.2-0.1,0.4-0.2,0.6c0,0.1-0.1,0.2-0.1,0.4 c-2.3-1.9-4.8-3.6-7.4-4.9c-0.8-0.4-1.5-0.7-2.3-1.1c-0.7-0.4-1.4-0.8-2.2-1.2c-0.8-0.4-1.6-0.7-2.5-0.9l-0.1,0 C22.1,62.1,22.2,62,22.3,61.9 M39.4,67.3C39.4,67.3,39.4,67.2,39.4,67.3c0-0.1,0-0.3,0-0.4c0-0.2-0.1-0.4-0.1-0.6 c0-0.1,0-0.2-0.1-0.2c0,0,0-0.1,0-0.2c0-0.2-0.1-0.3-0.1-0.5c0.1-0.1,0.2-0.1,0.4-0.2l0,0c0.1,0,0.1,0,0.2-0.1c0,0,0,0,0.1,0 c0,0,0.1,0,0.1,0c0.1,0,0.3,0,0.4,0c0,0,0.1,0,0.2,0c0.1,0,0.2,0,0.3,0.1c0.2,0,0.4,0.1,0.5,0.2l0.1,0c0,0,0.2,0.1,0.2,0.1 c0.1,0,0.2,0.1,0.2,0.1c0,0.1,0.1,0.1,0.1,0.2c-0.3-0.4,0,0,0.1,0.1c0.1,0.1,0.1,0.3,0.2,0.4l0,0c0,0.1,0,0.1,0.1,0.2 c0.1,0.2,0.1,0.4,0.2,0.5c0,0.2,0.1,0.3,0.1,0.5c0,0,0,0.1,0,0.1c0,0,0,0.1,0,0.1c0,0.4,0.1,0.7,0.1,1.1c0,0.3,0,0.7,0,1 c0,0.2,0,0.3,0,0.5c0,0.1,0,0.2,0,0.3c-0.1,0.7-0.3,1.4-0.5,2.1c-0.1,0.4-0.3,0.8-0.5,1.3l0,0l0,0c0,0.1-0.1,0.2-0.1,0.3 c-0.1,0.2-0.2,0.5-0.3,0.7c-0.4,0.8-0.9,1.7-1.3,2.5c-0.4,0.8-0.9,1.6-1.4,2.4c-0.2,0.4-0.5,0.7-0.7,1c-0.1,0.2-0.2,0.3-0.4,0.5 l-0.1,0.1c0,0-0.2,0.2-0.2,0.2c-0.7,0.9-1.5,1.8-2.4,2.6c-0.2,0.2-0.4,0.4-0.6,0.5c0,0-0.2,0.1-0.2,0.2c-0.1,0.1-0.2,0.1-0.3,0.2 c-0.5,0.3-0.9,0.6-1.4,0.8c-0.1,0-0.1,0.1-0.2,0.1c-0.1,0-0.2,0.1-0.2,0.1c-0.3,0.1-0.5,0.2-0.8,0.2c-0.2,0-0.4,0.1-0.5,0.1l0,0 c-0.1,0-0.2,0-0.4,0c-0.2,0-0.4,0-0.7,0c-0.1,0-0.2,0-0.3,0l-0.2,0c-0.2,0-0.4-0.1-0.7-0.2c0,0,0-0.1,0-0.1c0-0.1-0.1-0.3-0.1-0.4 c0,0,0,0,0-0.1c0-0.1,0-0.2,0-0.3c0-0.1,0-0.2,0-0.3c0,0,0-0.1,0-0.1c0-0.2,0.1-0.3,0.1-0.5c0,0,0-0.1,0-0.1c0,0,0-0.1,0.1-0.1 c0-0.1,0.1-0.1,0.1-0.2l0.2,0c0.5-0.1,1-0.3,1.5-0.7c0.9-0.7,1.8-1.4,2.7-2.2c0.6-0.6,1.1-1.2,1.7-1.8c0.6-0.8,1.2-1.5,1.8-2.4 c1.1-1.5,2-3.2,2.8-4.9c0.5-0.9,0.8-2,0.9-3c0-0.4,0-0.7,0-1.1C39.5,67.8,39.4,67.5,39.4,67.3 M42.1,66.4 C42.2,66.5,42.2,66.5,42.1,66.4L42.1,66.4z M27.8,85.9C27.8,85.9,27.8,85.9,27.8,85.9L27.8,85.9z M18.1,66.8 c0.1-0.2,0.2-0.4,0.4-0.6c0.1-0.1,0.1-0.2,0.2-0.3l0.1-0.1l0-0.1c0.3-0.4,0.7-0.8,1.1-1.2c0.4,0.1,0.9,0.2,1.3,0.3 c0.4,0.1,0.7,0.2,1,0.3c0.1,0,0.2,0.1,0.3,0.1l0,0l0,0c0.2,0.1,0.4,0.2,0.6,0.3c0.7,0.3,1.4,0.7,2.1,1.1c0.7,0.4,1.5,0.7,2.3,1.1 c1.5,0.7,2.9,1.6,4.3,2.5c0.3,0.2,0.7,0.5,1,0.7c0.2,0.1,0.4,0.3,0.5,0.4l0.1,0.1l0.2,0.1c0.5,0.4,1,0.8,1.5,1.3 c-0.3,0.6-0.7,1.2-1.1,1.8c-0.2,0.4-0.5,0.7-0.7,1.1c-0.1,0.1-0.2,0.2-0.2,0.3c-0.4-0.4-0.8-0.7-1.3-1c-0.7-0.5-1.4-1-2.1-1.5 l-0.4-0.3c0.4,0.3-0.1-0.1-0.2-0.2C29,73,28.9,73,28.8,72.9c-0.3-0.2-0.6-0.4-1-0.6c-0.7-0.4-1.5-0.8-2.2-1.2 c-1.5-0.8-2.9-1.6-4.4-2.3c-1.1-0.5-2.2-1.1-3.3-1.5C17.9,67.1,18,67,18.1,66.8 M16.1,79.5c-0.2,0.6-0.3,1.2-0.4,1.8c0,0,0,0,0,0 c-0.1-0.7-0.1-1.4,0-2.1c0-0.7,0.1-1.4,0.1-2.1c0,0,0-0.1,0-0.2c0,0,0-0.1,0-0.1l0,0c0.4,0.2,0.7,0.3,1.1,0.5 C16.6,78.1,16.3,78.8,16.1,79.5z M15.9,73.8c0,0-0.1-0.1-0.1-0.1c0,0-0.1-0.1-0.2-0.1c-0.1-0.1-0.2-0.2-0.2-0.2l0,0l0,0 c0-0.1-0.1-0.1-0.1-0.2c0-0.1-0.1-0.3-0.1-0.3c0-0.1,0-0.2,0-0.3c0,0,0,0,0-0.1c0-0.1,0-0.1,0-0.2c0-0.2,0.1-0.3,0.1-0.5 c0-0.1,0-0.1,0.1-0.2c0.2-0.4,0.4-0.7,0.6-1l0.4-0.8c0.1,0,0.2,0.1,0.2,0.1c0.1,0,0.3,0.1,0.4,0.1l0.2,0.1c0.1,0,0.2,0.1,0.3,0.1 c0.8,0.3,1.5,0.7,2.2,1.1c1.5,0.7,2.9,1.5,4.3,2.3c0.7,0.4,1.4,0.7,2.1,1.1c0.3,0.2,0.7,0.4,1,0.6c0.1,0.1,0.2,0.1,0.3,0.2l0.4,0.3 l0.3,0.2c0.7,0.5,1.3,1,2,1.5c0.1,0.1,0.3,0.2,0.4,0.3l0,0l0,0c0.1,0.1,0.2,0.1,0.3,0.2c0.2,0.1,0.3,0.3,0.4,0.4 c-0.1,0.2-0.3,0.3-0.5,0.5c-0.8,0.8-1.6,1.5-2.4,2.1l0,0c0,0-0.1,0-0.1,0c-0.1,0-0.2,0-0.3-0.1c0,0-0.1,0-0.1,0 c-0.1-0.1-0.3-0.1-0.4-0.2c-0.4-0.2-0.7-0.4-1.1-0.7c-0.7-0.5-1.4-0.9-2.1-1.4c-0.8-0.5-1.5-1.1-2.3-1.7c-0.8-0.5-1.6-1-2.4-1.4 c-0.8-0.4-1.6-0.8-2.5-1.2C16.7,74.2,16.3,74,15.9,73.8 M18.5,81.5C18.5,81.6,18.5,81.7,18.5,81.5L18.5,81.5z M20.7,80.9 c-0.4,0.9-0.6,1.8-0.8,2.7c-0.2,0.9-0.2,1.7-0.2,2.6c0,0.5,0.1,0.9,0.1,1.4c0,0.3,0.1,0.5,0.2,0.8c-0.1-0.1-0.3-0.2-0.4-0.3 c0,0-0.1-0.1-0.1-0.1c-0.1-0.2-0.2-0.4-0.3-0.6c0,0-0.1-0.2-0.1-0.2c0-0.1-0.1-0.2-0.1-0.3c-0.2-0.5-0.4-1-0.5-1.6 c0-0.1,0-0.2-0.1-0.3c0,0,0-0.1,0-0.1c0,0,0,0,0-0.1c0-0.3,0-0.6-0.1-0.8c0-0.6,0-1.1,0-1.7c0-0.2,0-0.5,0.1-0.7c0-0.1,0-0.2,0-0.2 l0,0c0.1-0.4,0.1-0.7,0.3-1.1c0.1-0.2,0.1-0.4,0.2-0.6c0,0,0-0.1,0.1-0.2c0-0.1,0.1-0.2,0.1-0.3c0.1-0.2,0.2-0.4,0.3-0.6 c0.6,0.4,1.2,0.8,1.8,1.2C21.1,80.2,20.9,80.5,20.7,80.9 M33.7,94.6c-0.1,0-0.2,0-0.3,0.1l-0.1,0c-0.2,0-0.4,0-0.6,0.1 c-0.4,0-0.8,0-1.2,0l-0.1,0c-0.1,0-0.2,0-0.2,0c-0.2,0-0.5-0.1-0.7-0.2c-0.4-0.1-0.8-0.2-1.2-0.4c-0.2-0.1-0.3-0.1-0.5-0.2l-0.2-0.1 c-0.1-0.1-0.3-0.1-0.4-0.2c-0.8-0.4-1.7-0.7-2.4-1.1c-0.1,0-0.2-0.1-0.3-0.2c-0.2-0.1-0.3-0.3-0.5-0.4c-0.2-0.2-0.3-0.4-0.5-0.6 c-0.1-0.1-0.2-0.2-0.2-0.3l-0.1-0.2c-0.3-0.4-0.6-0.8-0.8-1.2c0-0.1-0.1-0.1-0.1-0.2c0,0,0-0.1-0.1-0.1c-0.1-0.4-0.2-0.7-0.3-1.1 c-0.1-0.3-0.2-0.7-0.3-1c0,0,0-0.1,0-0.1c0,0,0-0.2,0-0.2c0-0.2,0-0.4,0-0.6c0-0.3,0-0.7,0-1c0-0.1,0-0.3,0-0.4c0-0.1,0-0.2,0-0.2 c0-0.1,0-0.2,0-0.3c0.1-0.4,0.1-0.7,0.2-1.1c0-0.2,0.1-0.4,0.1-0.5c0-0.1,0.1-0.2,0.1-0.3l0,0l0,0c0.1-0.2,0.2-0.5,0.4-0.7 c0.3,0.2,0.7,0.4,1,0.6c0.3,0.2,0.7,0.4,1.1,0.7c-0.4,0.8-0.7,1.7-0.7,2.5c0,0.9,0.2,1.8,0.6,2.6c0.9,1.6,2.1,3,3.7,4 c1.5,0.9,3.1,1.6,4.8,2.2c0.3,0.1,0.5,0.2,0.8,0.2C34.5,94.4,34.1,94.5,33.7,94.6 M33.2,90.5C33.4,90.5,33.3,90.5,33.2,90.5 L33.2,90.5z M36.5,89.3c-0.3,0.1-0.5,0.3-0.8,0.4c-0.1,0.1-0.3,0.1-0.4,0.2l-0.1,0.1c-0.4,0.2-0.9,0.3-1.3,0.5 c-0.2,0-0.4,0.1-0.5,0.1c0,0-0.1,0-0.1,0l0,0c-0.1,0-0.2,0-0.2,0c0,0,0,0,0,0c-0.1,0-0.2-0.1-0.3-0.1c-0.7-0.3-1.4-0.7-2-1.1l0,0 c0.2,0,0.3,0,0.5-0.1c1.5-0.3,3-0.9,4.2-1.9c1.5-1.1,2.8-2.4,3.9-3.8c1.1-1.5,2.2-3.1,3-4.7c1.5-2.4,2.5-5.1,3.1-7.8 c0.2-1,0.2-2,0.2-3c0.4,0.3,0.9,0.6,1.3,0.9c0,0.1,0.1,0.1,0.1,0.2c0,0.1,0.1,0.1,0.1,0.2c0,0,0.1,0.2,0.1,0.3 c0.1,0.2,0.1,0.3,0.1,0.5c0,0.1,0,0.3,0.1,0.3c0,0.1,0,0.2,0,0.3c0,0.3,0,0.7,0,1c0,0.3,0,0.6-0.1,1l0,0c0,0.1,0,0.1,0,0.2 c0,0.2-0.1,0.4-0.1,0.5c-0.1,0.6-0.2,1.2-0.4,1.7c-0.1,0.4-0.2,0.8-0.4,1.2c-0.1,0.2-0.2,0.4-0.2,0.6c0,0.1,0,0.1-0.1,0.2 c0,0-0.1,0.3-0.1,0.3c-0.4,0.9-0.8,1.7-1.2,2.5c-0.8,1.6-1.7,3.1-2.7,4.5c-0.2,0.2-0.3,0.5-0.5,0.7l-0.1,0.2l0,0 c-0.1,0.1-0.2,0.3-0.3,0.4c-0.4,0.5-0.9,1-1.4,1.4c-0.2,0.2-0.4,0.4-0.7,0.6l0,0L38.7,88c-0.1,0.1-0.3,0.2-0.4,0.3 C37.7,88.6,37.1,89,36.5,89.3 M46.7,68.9L46.7,68.9L46.7,68.9 M47.1,72.7C47.1,72.8,47.1,72.9,47.1,72.7L47.1,72.7z M49.9,72.8 c0.1,0.2,0.2,0.4,0.3,0.6c0.1,0.2,0.2,0.4,0.2,0.5c0,0,0,0.1,0,0.1c0,0.1,0.1,0.2,0.1,0.2c0,0.2,0.1,0.3,0.1,0.5c0,0,0,0,0,0 c0,0.1,0,0.2,0,0.3c0,0.4,0,0.8,0,1.1c0,0.1,0,0.2,0,0.3l0,0.1c0,0.1,0,0.3-0.1,0.4c0,0.2-0.1,0.4-0.1,0.6c0,0,0,0,0,0 c0,0,0,0.1,0,0.1c-0.3,1.1-0.7,2.1-1.1,3.2l0,0.1L49.2,81c-0.1,0.2-0.1,0.3-0.2,0.5c-0.2,0.4-0.3,0.7-0.5,1.1c-0.3,0.7-0.6,1.3-1,2 c-0.4,0.7-0.8,1.4-1.3,2.1c-0.1,0.1-0.2,0.3-0.3,0.4l0,0.1c-0.1,0.1-0.1,0.1-0.2,0.2c-0.2,0.3-0.5,0.6-0.7,0.8 c-0.4,0.4-0.8,0.9-1.3,1.3c-0.2,0.2-0.4,0.3-0.5,0.5c-0.1,0.1-0.2,0.1-0.2,0.2l-0.1,0c-0.5,0.4-1,0.7-1.5,0.9 c-0.1,0.1-0.2,0.1-0.3,0.2c-0.1,0-0.1,0-0.2,0.1c-0.2,0.1-0.4,0.1-0.7,0.2c-0.3,0.1-0.5,0.1-0.8,0.2c-0.1,0-0.3,0-0.4,0.1 c-0.1,0-0.2,0-0.3,0c-0.3,0-0.7,0.1-1,0.1c0.5-0.3,1-0.5,1.5-0.8c3.1-1.8,5-4.9,6.7-7.8c1.7-2.6,2.9-5.5,3.6-8.5 C49.7,74,49.8,73.4,49.9,72.8 M48.1,59.9C48.3,59.9,48.2,59.9,48.1,59.9L48.1,59.9z M52.4,54.1C52.3,54.2,52.3,54.3,52.4,54.1 L52.4,54.1z M84.7,12.1C84.7,12,84.7,11.9,84.7,12.1L84.7,12.1z M56.1,40.3c1.5-3.5,2.7-7.1,3.8-10.7c1-3.1,1.9-6.2,3.1-9.2l0.1-0.3 l0,0c0.1-0.2,0.1-0.4,0.2-0.5c0.2-0.4,0.4-0.8,0.5-1.2c0.4-0.8,0.7-1.6,1.1-2.4c0.8-1.6,1.7-3,2.7-4.5c0.1-0.1,0.1-0.2,0.2-0.3l0,0 c0.1-0.2,0.3-0.3,0.4-0.5c0.3-0.4,0.6-0.7,0.9-1c0.6-0.6,1.2-1.3,1.9-1.8c0.2-0.1,0.3-0.3,0.5-0.4c0.1-0.1,0.2-0.1,0.3-0.2l0.1,0 c0.4-0.3,0.7-0.5,1.1-0.8c0.3-0.2,0.5-0.3,0.8-0.5c0.1-0.1,0.3-0.1,0.4-0.2c0.1,0,0.2-0.1,0.3-0.1c0.3-0.1,0.6-0.2,0.9-0.3 c0.1,0,0.3-0.1,0.4-0.1c0.1,0,0.1,0,0.2,0l0,0c0.6-0.1,1.2-0.1,1.8,0c0.1,0,0.1,0,0.2,0c0.1,0,0.3,0,0.4,0.1 c0.3,0.1,0.6,0.1,0.9,0.2c0.1,0,0.3,0.1,0.4,0.1c0.1,0,0.2,0.1,0.3,0.1c0.2,0.1,0.5,0.2,0.7,0.4c0.3,0.1,0.5,0.3,0.8,0.5 c0.1,0,0.1,0.1,0.2,0.1C82,7,82.1,7.1,82.2,7.2c0.2,0.2,0.4,0.4,0.6,0.6C82.9,7.9,83,8,83.1,8.2l0,0c0,0.1,0.1,0.1,0.1,0.2 c0.2,0.3,0.3,0.5,0.5,0.8c0.1,0.1,0.1,0.3,0.2,0.4c0,0.1,0.1,0.1,0.1,0.2l0,0c0.2,0.5,0.3,1,0.5,1.5c0.1,0.2,0.1,0.5,0.1,0.8 c0,0,0,0.1,0,0.1c0,0.2,0,0.3,0,0.5c0,0.5,0.1,1.1,0,1.7c0,0.3,0,0.5-0.1,0.8c0,0.1,0,0.2,0,0.4c0,0.1,0,0.2,0,0.2 c-0.1,0.6-0.2,1.2-0.3,1.7c-0.3,1.2-0.7,2.4-1.2,3.5l0,0l-0.1,0.1c-0.1,0.1-0.1,0.3-0.2,0.4c-0.1,0.3-0.3,0.6-0.4,0.9 c-0.3,0.6-0.6,1.2-0.9,1.8c-1.3,2.4-2.8,4.7-4.5,6.9c-0.1,0.1-0.2,0.3-0.3,0.4l-0.1,0.1l0,0c-0.2,0.3-0.4,0.6-0.7,0.8 c-0.4,0.5-0.8,1-1.3,1.5c-0.8,1-1.7,1.9-2.6,2.9c-2.5,2.5-5.3,4.9-8.2,7c-0.7,0.5-1.3,1-2,1.5l-0.2,0.1l0,0l-0.1,0.1l-0.6,0.4 c-0.4,0.3-0.7,0.6-1.1,0.8c-1,0.8-2,1.5-3,2.1c-0.6,0.3-1.2,0.7-1.7,1c0.3-0.5,0.6-1,0.9-1.5c2.4-1.8,4.8-3.6,7.2-5.5 c2.1-1.7,4.1-3.6,6.1-5.5c2.7-2.6,5.3-5.5,7.5-8.5c2.2-3.1,4-6.6,5.2-10.3c0.4-1,0.6-2,0.8-3c0.1-1.1,0.1-2.1,0-3.2 c-0.1-1-0.5-2-1-2.9c-0.6-0.9-1.3-1.6-2.2-2.1c-1.2-0.7-2.7-1-4.1-0.6c-1.2,0.3-2.3,1-3.3,1.8c-0.8,0.7-1.6,1.5-2.2,2.3 c-1.2,1.4-2.2,2.8-3.2,4.3c-1.8,3.2-3.3,6.7-4.3,10.2c-1.1,3.5-2.3,7-3.5,10.4c-0.2,0.6-0.5,1.2-0.7,1.8c-0.1,0.3-0.2,0.6-0.3,0.9 c-0.1,0.1-0.1,0.3-0.2,0.4l0,0.1c0,0-0.1,0.2-0.1,0.2c-0.6,1.3-1.2,2.6-1.9,3.8c-1.1,2-2.4,4-3.6,6c-0.2-0.2-0.4-0.3-0.6-0.5 C53.4,46.1,54.8,43.2,56.1,40.3 M80.4,15.3c0,0.2-0.1,0.3-0.1,0.5c-0.2,0.8-0.5,1.7-0.8,2.5c-0.1,0.4-0.3,0.9-0.5,1.3 c-0.1,0.2-0.2,0.4-0.2,0.6c0,0.1-0.1,0.2-0.1,0.3l-0.1,0.2c-0.7,1.7-1.6,3.4-2.5,4.9c-0.5,0.8-1,1.6-1.6,2.3 c-0.1,0.2-0.2,0.3-0.4,0.5L74,28.5l-0.2,0.3c-0.3,0.4-0.6,0.8-0.9,1.1c-1.2,1.4-2.4,2.8-3.7,4.1c-2.1,2.1-4.3,4.3-6.6,6.2 c-0.9,0.8-1.9,1.5-2.8,2.2c0-0.1,0.1-0.2,0.1-0.3c0.8-1.8,1.5-3.6,2.2-5.4c0.6-1.7,1.2-3.5,1.8-5.2c0.6-1.7,1.1-3.5,1.7-5.2 c0.3-0.9,0.5-1.7,0.8-2.5c0.1-0.4,0.3-0.8,0.4-1.2c0.1-0.2,0.2-0.4,0.2-0.6c0-0.1,0.1-0.2,0.1-0.3l0.1-0.2c0.7-1.7,1.5-3.3,2.5-4.9 c0.5-0.8,1-1.5,1.5-2.2l0.1-0.1l0.1-0.2c0.1-0.2,0.3-0.3,0.4-0.5c0.2-0.2,0.4-0.4,0.6-0.7c0.5-0.5,0.9-1.1,1.5-1.6 c0.3-0.3,0.5-0.5,0.8-0.8l0.1-0.1l0.1-0.1c0.2-0.1,0.3-0.2,0.5-0.3c0.1-0.1,0.3-0.2,0.4-0.2c0,0,0.1,0,0.1,0c0.1,0,0.1,0,0.1-0.1 c0.2-0.1,0.3-0.1,0.5-0.1c0,0,0.1,0,0.1,0s0.1,0,0.1,0c0.2,0,0.3,0,0.5,0l0,0c0.1,0,0.2,0,0.3,0.1c0.1,0,0.3,0.1,0.4,0.1 c0,0,0.1,0,0.1,0c0.1,0.1,0.2,0.1,0.3,0.2c0.1,0.1,0.3,0.2,0.4,0.2l0.1,0c0,0,0.1,0,0.1,0.1c0.1,0.1,0.2,0.2,0.3,0.3 c0.1,0.1,0.1,0.1,0.2,0.2l0,0l0,0c0.2,0.3,0.3,0.5,0.5,0.8c0,0,0,0,0,0.1c0,0,0,0.1,0,0.1c0.1,0.2,0.1,0.4,0.2,0.5 c0,0.2,0.1,0.3,0.1,0.5c0,0.1,0,0.3,0.1,0.4c0,0.3,0,0.6,0,0.9c0,0.3,0,0.6,0,0.9l0,0C80.4,15.1,80.4,15.2,80.4,15.3 M80.4,15.1 C80.4,15.2,80.3,15.3,80.4,15.1L80.4,15.1z M39.9,60.8c0,0,0.1,0,0.1,0c0.2,0,0.4,0.1,0.5,0.1c0.3,0.1,0.6,0.2,0.9,0.3l0.1,0 c0.1,0,0.2,0.1,0.3,0.1c0.1,0.1,0.2,0.1,0.4,0.2c0.1,0.1,0.3,0.1,0.5,0.2c0.1,0,0.1,0.1,0.2,0.1c0.6,0.4,1.3,0.8,1.9,1.3 c0.1,0.1,0.3,0.2,0.4,0.3c0.1,0.1,0.3,0.2,0.4,0.4c0.4,0.3,0.8,0.7,1.1,1.1c0.2,0.2,0.4,0.4,0.6,0.6c0.1,0.1,0.2,0.2,0.2,0.3 c0,0,0.1,0.2,0.2,0.2c0.1,0.1,0.2,0.3,0.3,0.5c-0.1-0.1-0.2-0.1-0.3-0.2c-0.8-0.5-1.5-1.1-2.3-1.6c-0.8-0.5-1.5-1-2.3-1.5 c-0.9-0.5-1.8-0.8-2.8-0.9c-0.1,0-0.1,0-0.2,0c-0.2,0-0.3,0-0.5,0c-0.3,0-0.6,0.1-0.9,0.1c-0.5,0.2-1,0.4-1.5,0.7 c0,0-0.1,0.1-0.1,0.1L37,63.1l-0.2-0.1c-0.1-0.1-0.1-0.1,0.1,0.1l-0.2-0.1c-0.3-0.3-0.6-0.5-1-0.7c0.1-0.1,0.2-0.2,0.2-0.2 c0.1-0.1,0.2-0.1,0.2-0.2c0.2-0.2,0.5-0.3,0.8-0.4c0.1-0.1,0.2-0.1,0.4-0.2l0,0l0.1,0c0.2-0.1,0.5-0.2,0.7-0.2 c0.1,0,0.2-0.1,0.4-0.1c0,0,0.1,0,0.2,0c0.4,0,0.8,0,1.2,0L39.9,60.8"></path></svg>